<svg width="62" height="24" viewBox="0 0 62 24" fill="none" xmlns="http://www.w3.org/2000/svg">
<path d="M51.5614 6.22944V3.27118C53.4299 3.17802 54.707 1.83811 54.8002 0.000976562H57.7898C57.727 3.45856 55.0179 6.10592 51.5603 6.23049L51.5614 6.22944Z" fill="#022A9A"/>
<path d="M34.577 20.3814V23.638H33.6118C31.4408 23.638 30.0841 22.7336 29.6622 21.0451C28.426 22.8539 26.4664 24.0002 24.1142 24.0002C19.7731 24.0002 16.5469 20.5332 16.5469 15.9503C16.5469 11.3674 19.7731 7.90039 24.1142 7.90039C26.3753 7.90039 28.2752 8.95557 29.5105 10.6441V8.26258H32.8874V18.9661C32.8874 19.8402 33.4004 20.3835 34.3048 20.3835H34.5759L34.577 20.3814ZM29.5115 15.9492C29.5115 13.2359 27.4912 11.1549 24.7779 11.1549C22.0646 11.1549 20.0139 13.2349 20.0139 15.9492C20.0139 18.6636 22.0342 20.7425 24.7779 20.7425C27.5215 20.7425 29.5115 18.6625 29.5115 15.9492Z" fill="#022A9A"/>
<path d="M37.3132 0H40.9006V23.6378H37.3132V0Z" fill="#022A9A"/>
<path d="M61.3752 20.3814V23.638H60.4101C58.239 23.638 56.8824 22.7336 56.4605 21.0451C55.2242 22.8539 53.2646 24.0002 50.9135 24.0002C46.5714 24.0002 43.3462 20.5332 43.3462 15.9503C43.3462 11.3674 46.5724 7.90039 50.9135 7.90039C53.1746 7.90039 55.0745 8.95557 56.3098 10.6441V8.26258H59.6867V18.9661C59.6867 19.8402 60.1997 20.3835 61.1041 20.3835H61.3752V20.3814ZM56.3098 15.9492C56.3098 13.2359 54.2894 11.1549 51.5761 11.1549C48.8628 11.1549 46.8121 13.2349 46.8121 15.9492C46.8121 18.6636 48.8325 20.7425 51.5761 20.7425C54.3198 20.7425 56.3098 18.6625 56.3098 15.9492Z" fill="#022A9A"/>
<path d="M7.14026 23.9987C2.86408 23.9987 0.232422 21.6811 0.232422 18.0979V8.31348H3.58428V17.0124C3.58428 19.6912 4.99118 20.7777 7.14549 20.7777C9.41915 20.7777 10.9454 19.5718 10.9454 17.0124V8.31348H14.2972V18.1251C14.2972 22.0245 11.4363 23.9987 7.14131 23.9987H7.14026Z" fill="#022A9A"/>
</svg>
