<svg width="38" height="19" viewBox="0 0 38 19" fill="none" xmlns="http://www.w3.org/2000/svg">
<path d="M12.2505 19.0004C6.54651 19.0004 0.633133 14.205 0.624759 7.64784C0.622665 5.9761 1.8045 3.95996 4.03628 3.95996C6.26806 3.95996 7.35569 5.26951 7.53364 7.64784C7.81837 11.4425 9.2975 14.3547 9.58642 14.9105C9.6105 14.9556 9.6241 14.9828 9.63038 14.9964C10.517 16.8053 12.2757 17.917 14.4436 17.917C15.8379 17.917 17.0323 17.4019 18.0707 16.5258C16.2545 18.2718 14.3378 19.0004 12.2484 19.0004H12.2505Z" fill="#022A9A"/>
<path d="M25.6904 0.36084C31.3934 0.36084 37.3067 5.15623 37.3162 11.7134C37.3183 13.3851 36.1364 15.4013 33.9046 15.4013C31.6729 15.4013 30.5852 14.0917 30.4073 11.7134C30.0995 7.60993 28.4006 4.53862 28.3095 4.36485C27.4019 2.63135 25.5889 1.44428 23.4963 1.44428C22.102 1.44428 20.9076 1.9593 19.8691 2.83548C21.6853 1.08941 23.602 0.36084 25.6914 0.36084H25.6904Z" fill="#022A9A"/>
<path d="M28.3052 4.35856C27.3956 2.6282 25.5857 1.44531 23.4962 1.44531C22.1019 1.44531 20.9075 1.96034 19.8691 2.83651L19.8544 2.84907C15.8201 6.46054 13.5171 13.3014 9.5874 14.9103C9.61148 14.9553 9.62509 14.9825 9.63137 14.9961C10.518 16.805 12.2766 17.9167 14.4446 17.9167C15.8389 17.9167 17.0333 17.4017 18.0717 16.5255C22.2579 12.8062 24.0971 6.28886 28.3052 4.35856Z" fill="#FF5874"/>
</svg>
